<svg width="1542" height="963" viewBox="0 0 1542 963" fill="none" xmlns="http://www.w3.org/2000/svg">
  <g clip-path="url(#clip0_1_33)">
    <path
      d="M1541 458.5C1369 1026.5 644.198 910 415 910C185.802 910 0 724.198 0 495C0 265.802 185.802 80 415 80C644.198 80 1415.5 16.5 1541 458.5Z"
      fill="#EC1F23"></path>
    <path
      d="M1542 495C1542 724.198 1356.2 910 1127 910C897.802 910 0 886.5 0 479.5C0 31 897.802 80 1127 80C1356.2 80 1542 265.802 1542 495Z"
      fill="#EC1F23"></path>
    <path
      d="M1243 481.5C1243 747.425 1027.2 963 761 963C494.799 963 279 747.425 279 481.5C279 215.575 494.799 0 761 0C1027.2 0 1243 215.575 1243 481.5Z"
      fill="#EC1F23"></path>
    <path
      d="M675.453 217.8C700.24 214.907 726.347 215.653 749.64 225.48C767.96 233.147 782.72 248.867 788.733 267.853C796.267 291.067 793.107 316.173 787.08 339.36C781.467 360.747 772.467 381.653 758.053 398.627C739.973 420.387 714.507 435.96 686.8 441.76C662.653 446.667 637.307 446.64 613.307 440.947C594.107 436.52 576.307 424.72 566.773 407.2C553.853 385.16 554.04 358.213 559.027 333.867C564.08 307.773 574.627 282.267 592.173 262.04C613.107 237.493 643.453 221.587 675.453 217.8ZM676.653 275C667.587 276.733 659.267 281.533 652.827 288.08C642.893 298.427 638.013 312.4 634.56 326.027C631.52 339.067 628.907 352.733 631.52 366.067C633.253 375.773 640.827 384.053 650.4 386.52C663.947 389.973 679.253 387.613 690.533 379.12C700.093 372.147 705.533 361.16 709.48 350.307C713.947 337.293 717.36 323.773 718.093 309.987C718.507 300.44 717.08 289.84 710.013 282.76C701.48 274.053 688.067 273 676.653 275Z"
      fill="white"></path>
    <path
      d="M989.653 216.867C1013.91 215.28 1039.53 216.933 1061.37 228.6C1078.73 237.76 1091.41 254.773 1095.84 273.84C1101.47 297.4 1097.48 322.053 1090.89 345C1084.87 365.907 1075.11 386.053 1060.33 402.213C1041.57 423.2 1015.71 437.733 987.96 442.613C965.453 446.507 942.093 446.28 919.787 441.28C901.107 437.16 883.467 426.427 873.467 409.813C860.44 389.507 858.987 364.12 862.88 340.88C866.48 318.813 873.52 297.067 885.48 278.053C898.653 256.96 918 239.733 940.587 229.293C955.987 222.12 972.76 218.173 989.653 216.867ZM982.04 275C971.093 277.107 961.213 283.627 954.453 292.427C945.773 304.027 941.547 318.24 938.533 332.24C936.187 344.04 934.347 356.467 937.467 368.307C939.787 377.24 947.24 384.413 956.173 386.64C969.613 389.907 984.72 387.547 995.88 379.147C1005.23 372.347 1010.65 361.68 1014.57 351.093C1019.21 337.84 1022.72 324.027 1023.48 309.947C1023.91 300.36 1022.44 289.72 1015.31 282.667C1006.76 274.04 993.4 273.013 982.04 275Z"
      fill="white"></path>
    <path
      d="M274.387 219.973C298.053 219.973 321.733 219.973 345.4 219.973C344.587 255.427 343.693 290.88 342.893 326.333C360.213 290.88 377.547 255.413 394.893 219.96C417.787 219.987 440.667 219.973 463.547 219.973C465.84 255.387 468.12 290.8 470.44 326.213C484.667 290.8 498.893 255.387 513.12 219.973C536.68 219.96 560.24 219.973 583.8 219.973C551.867 293.907 519.693 367.72 487.72 441.64C464.027 441.627 440.333 441.64 416.64 441.627C413.933 400.36 411.2 359.093 408.467 317.813C388.08 359.027 367.933 400.36 347.667 441.64C323.973 441.627 300.28 441.64 276.587 441.64C275.867 367.747 275.133 293.867 274.387 219.973Z"
      fill="white"></path>
    <path
      d="M1146.05 219.973C1170.68 219.96 1195.32 219.96 1219.96 219.973C1210.91 262.44 1201.96 304.933 1192.83 347.387C1191.15 355.16 1189.09 363.253 1191.07 371.187C1192.59 377.933 1197.84 383.6 1204.43 385.72C1220.68 390.88 1240.88 385.813 1250.16 370.773C1254.19 364.653 1256.12 357.48 1257.53 350.373C1266.84 306.92 1276.04 263.44 1285.29 219.973C1309.84 219.96 1334.39 219.96 1358.93 219.973C1350.04 261.76 1341.21 303.56 1332.25 345.333C1329.32 361 1324.12 376.307 1315.96 390.053C1305.21 408.573 1288.87 423.6 1269.88 433.387C1246.24 444.853 1219.16 446.307 1193.36 444.707C1176.44 443.373 1158.49 442.187 1143.77 432.84C1129.83 423.653 1119.69 408.52 1116.93 392C1115.19 377.933 1115.41 363.52 1118.44 349.627C1127.73 306.427 1136.84 263.187 1146.05 219.973Z"
      fill="white"></path>
    <path
      d="M225.533 706.32C241.253 632.36 256.973 558.387 272.693 484.427C311.573 484.44 350.467 484.4 389.347 484.453C404.213 484.72 419.387 485.213 433.653 489.827C444.44 493.32 453.547 501.493 458.067 511.907C464.24 525.627 462.613 541.413 458.4 555.44C450.84 580.827 429.267 600.84 404.187 608.52C414.827 614.013 420.027 625.56 424.96 635.827C432.48 659.213 439.293 682.84 446.547 706.32C418.707 706.32 390.853 706.32 363 706.32C355.373 683.08 347.787 659.84 340.133 636.627C338.413 632 336.84 626.987 333.12 623.547C329.093 619.987 323.533 619.48 318.413 619.173C312.227 648.213 306.067 677.267 299.88 706.307C275.093 706.32 250.307 706.32 225.533 706.32ZM336.213 535.373C333.68 547.32 331.133 559.267 328.6 571.213C343.587 571.16 358.973 572.28 373.387 567.293C382.133 563.56 387.4 552.973 384.827 543.787C382.96 537.893 376.133 536.507 370.773 535.88C359.28 534.893 347.733 535.573 336.213 535.373Z"
      fill="white"></path>
    <path
      d="M457.693 706.32C473.427 632.36 489.133 558.387 504.867 484.427C529.547 484.44 554.227 484.427 578.907 484.44C573.667 509.173 568.4 533.907 563.147 558.653C589.587 533.973 615.933 509.213 642.253 484.427C675.24 484.453 708.213 484.413 741.2 484.44C707.72 512.867 674.2 541.24 640.72 569.667C658.933 615.213 677.16 660.76 695.36 706.307C665.16 706.32 634.96 706.307 604.747 706.32C596.2 677.907 587.72 649.48 579.147 621.08C568.307 630.28 557.587 639.613 546.72 648.773C545.107 650.227 543.093 651.613 542.893 653.973C539.133 671.413 535.493 688.88 531.747 706.32C507.067 706.307 482.387 706.32 457.693 706.32Z"
      fill="white"></path>
    <path
      d="M953.667 545.027C957.96 524.827 962.253 504.627 966.547 484.427C1036.23 484.427 1105.92 484.427 1175.6 484.427C1171.32 504.627 1167.01 524.827 1162.72 545.027C1140.23 545.027 1117.73 545.013 1095.24 545.04C1083.77 598.787 1072.37 652.56 1060.93 706.32C1036.25 706.307 1011.56 706.32 986.88 706.32C998.307 652.56 1009.75 598.8 1021.16 545.04C998.667 545.013 976.16 545.027 953.667 545.027Z"
      fill="white"></path>
    <path
      d="M542.92 774.227C545.84 774.707 548.773 775.187 551.707 775.68C550.653 778.733 549.573 781.787 548.52 784.853C555.467 784.52 562.413 784 569.347 783.373C569.44 785.907 569.56 788.44 569.68 791C561.44 791.613 553.187 792.093 544.933 792.52C542.867 795.947 540.653 799.293 538.027 802.333C541.72 800.307 546.28 798.773 550.307 800.867C553.52 802.293 554.587 805.907 556.093 808.813C561.4 806.427 566.72 804.08 572.067 801.773C573.173 804.507 574.293 807.24 575.413 810C568.947 812.24 562.56 814.68 556.293 817.387C556.267 822.773 556.267 828.16 556.24 833.547C553.573 833.533 550.92 833.547 548.28 833.56C548.28 829.453 548.267 825.36 548.24 821.28C544.307 823.827 539.533 825.867 537.213 830.173C535.467 833.36 537.947 837.173 541.387 837.533C551.547 839.347 561.92 837.853 572.12 837.187C572.24 839.893 572.387 842.6 572.533 845.333C562.547 845.84 552.52 846.613 542.547 845.76C538.067 845.187 532.773 844.133 530.307 839.92C527.533 834.453 528.573 827.24 532.907 822.853C537.267 818.307 543.013 815.507 548.493 812.56C547.68 810.347 547.307 806.387 544.04 806.827C536.013 808.013 531.187 815.507 526.013 820.987C523.88 819.12 521.747 817.24 519.627 815.373C526.013 808.56 531.747 801.107 536.08 792.813C531.347 792.813 526.613 792.773 521.893 792.68C521.88 790.107 521.893 787.547 521.893 784.987C527.787 785.2 533.68 785.253 539.573 785.16C540.733 781.52 541.853 777.88 542.92 774.227Z"
      fill="black"></path>
    <path
      d="M613.56 778.333C624.933 777.893 636.427 777.053 647.36 773.733C649.493 775.8 651.507 778.027 653.067 780.573C647.84 781.573 642.6 782.493 637.347 783.347C637.347 784.4 637.347 786.52 637.333 787.587C642.547 787.547 647.773 787.44 652.987 787.373C653.013 789.733 653.04 792.093 653.08 794.467C647.827 794.4 642.587 794.32 637.333 794.307C637.333 795.12 637.347 796.76 637.347 797.587C642.04 797.533 646.733 797.467 651.427 797.427C651.24 805.667 651.24 813.907 651.44 822.16C646.733 822.107 642.027 822.04 637.333 822C637.333 822.8 637.347 824.4 637.347 825.2C641.933 825.133 646.52 825.08 651.107 825.027C651.093 827.373 651.093 829.733 651.08 832.107C646.493 832.067 641.907 832.013 637.333 831.96C637.333 832.84 637.347 834.6 637.347 835.48C641.893 834.827 646.427 834.173 650.973 833.533C650.96 834.6 650.92 836.747 650.893 837.813C658.787 826.68 661.2 812.933 661.64 799.573C659 799.6 656.373 799.64 653.76 799.68C653.747 796.92 653.76 794.187 653.787 791.453C656.533 791.48 659.293 791.533 662.04 791.6C662.16 785.467 662.04 779.347 661.587 773.253C664.773 773.48 667.96 773.72 671.147 773.987C670.293 779.827 670.133 785.733 670.2 791.627C674.973 791.587 679.76 791.52 684.533 791.467C684.467 806.573 684.453 821.747 682.4 836.747C681.867 839.973 681.293 843.68 678.533 845.813C674.72 848.52 669.773 847.627 665.413 847.547C664.76 844.653 664.067 841.787 663.32 838.933C666.8 838.88 672.64 840.973 673.813 836.16C676.333 824.147 676.04 811.747 676.373 799.547C674.227 799.533 672.093 799.533 669.96 799.547C669.053 816.893 666.333 835.813 653.347 848.6C650.92 846.627 648.493 844.68 646.027 842.787C646.533 842.267 647.56 841.24 648.067 840.733C636.72 843.2 625.107 844.093 613.693 846.187C613.053 843.2 612.44 840.227 611.853 837.24C617.773 837.213 623.707 836.893 629.613 836.44C629.613 835.32 629.627 833.08 629.627 831.96C624.44 831.987 619.267 832.067 614.107 832.12C614.08 829.747 614.067 827.387 614.067 825.04C619.253 825.08 624.427 825.16 629.613 825.2C629.613 824.4 629.627 822.8 629.627 822C624.973 822.053 620.333 822.107 615.693 822.173C615.867 813.92 615.88 805.667 615.693 797.413C620.307 797.467 624.933 797.52 629.56 797.587C629.573 796.76 629.627 795.12 629.653 794.307C623.907 794.32 618.173 794.413 612.427 794.467C612.44 792.08 612.467 789.72 612.493 787.36C618.187 787.453 623.893 787.56 629.6 787.573C629.613 786.747 629.627 785.093 629.627 784.267C625.493 784.613 621.36 784.907 617.227 785.173C616 782.88 614.787 780.587 613.56 778.333ZM623.227 803.28C623.253 804.24 623.293 806.16 623.307 807.12C625.387 807.107 627.467 807.107 629.56 807.12C629.587 806.12 629.627 804.133 629.64 803.133C627.493 803.173 625.36 803.227 623.227 803.28ZM637.36 803.187C637.347 804.16 637.333 806.133 637.333 807.12C639.547 807.107 641.773 807.107 644 807.12C644 806.133 644 804.173 644 803.187C641.773 803.173 639.56 803.173 637.36 803.187ZM623.293 812.333C623.28 813.64 623.267 814.96 623.28 816.293C625.387 816.293 627.493 816.293 629.627 816.32C629.627 815.32 629.64 813.333 629.64 812.347C627.52 812.333 625.4 812.32 623.293 812.333ZM637.333 812.333C637.333 813.653 637.333 814.973 637.347 816.307C639.56 816.293 641.773 816.293 644 816.307C644 815.32 644 813.32 644.013 812.333C641.773 812.333 639.547 812.32 637.333 812.333Z"
      fill="black"></path>
    <path
      d="M1043.63 778.333C1054.97 777.88 1066.45 777.067 1077.37 773.72C1079.49 775.8 1081.49 778.027 1083.15 780.533C1077.89 781.573 1072.63 782.48 1067.35 783.347C1067.35 784.413 1067.35 786.533 1067.35 787.587C1072.55 787.547 1077.76 787.44 1082.99 787.373C1083.01 789.733 1083.07 792.093 1083.13 794.48C1077.85 794.4 1072.59 794.32 1067.33 794.307C1067.33 795.133 1067.33 796.76 1067.35 797.573C1072.03 797.533 1076.73 797.467 1081.43 797.413C1081.24 805.653 1081.23 813.907 1081.44 822.16C1076.73 822.107 1072.03 822.04 1067.33 822C1067.35 822.8 1067.35 824.4 1067.35 825.2C1071.93 825.133 1076.52 825.08 1081.12 825.04C1081.09 827.373 1081.09 829.733 1081.09 832.08C1076.51 832.067 1071.92 832.013 1067.35 831.96C1067.35 832.84 1067.35 834.6 1067.35 835.48C1071.92 834.813 1076.51 834.173 1081.11 833.547C1080.96 834.693 1080.68 836.973 1080.53 838.12C1088.84 827.067 1091.13 813.053 1091.64 799.573C1089 799.6 1086.37 799.64 1083.75 799.693C1083.76 796.933 1083.77 794.2 1083.81 791.453C1086.55 791.493 1089.29 791.533 1092.04 791.587C1092.16 785.467 1092.03 779.333 1091.6 773.227C1094.77 773.48 1097.97 773.747 1101.17 774.04C1100.27 779.853 1100.13 785.747 1100.21 791.627C1104.99 791.573 1109.77 791.507 1114.57 791.52C1114.41 806.533 1114.47 821.64 1112.43 836.547C1111.85 839.96 1111.31 844.027 1108.15 846.08C1104.35 848.48 1099.65 847.613 1095.43 847.56C1094.75 844.653 1094.07 841.773 1093.32 838.92C1095.95 839.067 1098.61 839.44 1101.27 839.173C1103.97 838.2 1104.07 834.84 1104.6 832.48C1106.08 821.573 1106.2 810.533 1106.37 799.547C1104.23 799.533 1102.08 799.533 1099.96 799.547C1099.09 816.88 1096.27 835.653 1083.49 848.56C1080.99 846.64 1078.52 844.693 1076.01 842.8C1076.51 842.293 1077.52 841.267 1078.01 840.76C1066.68 843.227 1055.09 844.04 1043.72 846.24C1043.05 843.24 1042.44 840.24 1041.85 837.24C1047.79 837.213 1053.71 836.907 1059.63 836.427C1059.61 834.92 1059.6 833.427 1059.61 831.947C1054.43 831.987 1049.24 832.08 1044.07 832.08C1044.05 829.707 1044.07 827.373 1044.08 825.04C1049.25 825.08 1054.43 825.16 1059.61 825.2C1059.61 824.4 1059.63 822.8 1059.63 822C1054.97 822.053 1050.33 822.107 1045.69 822.16C1045.87 813.92 1045.88 805.667 1045.69 797.427C1050.31 797.453 1054.92 797.52 1059.56 797.573C1059.59 796.76 1059.65 795.133 1059.68 794.32C1053.92 794.307 1048.19 794.4 1042.44 794.467C1042.44 792.093 1042.45 789.72 1042.47 787.373C1048.17 787.453 1053.89 787.573 1059.6 787.56C1059.61 786.747 1059.63 785.107 1059.64 784.293C1055.44 784.627 1051.25 784.933 1047.05 785.067C1045.92 782.8 1044.77 780.56 1043.63 778.333ZM1053.28 803.187C1053.28 804.173 1053.28 806.147 1053.28 807.133C1055.37 807.107 1057.48 807.093 1059.6 807.093C1059.61 806.107 1059.63 804.16 1059.63 803.187C1057.51 803.173 1055.39 803.173 1053.28 803.187ZM1067.35 803.187C1067.35 804.173 1067.33 806.133 1067.33 807.12C1069.55 807.093 1071.77 807.093 1074.03 807.107C1074 805.787 1073.99 804.48 1073.99 803.173C1071.75 803.16 1069.55 803.173 1067.35 803.187ZM1053.27 812.333C1053.27 813.653 1053.27 814.973 1053.29 816.307C1055.39 816.293 1057.51 816.293 1059.64 816.307C1059.61 814.973 1059.6 813.64 1059.6 812.333C1057.48 812.32 1055.36 812.32 1053.27 812.333ZM1067.35 812.333C1067.33 813.653 1067.32 814.973 1067.33 816.307C1069.55 816.293 1071.77 816.293 1074.01 816.307C1073.99 814.973 1073.99 813.64 1073.99 812.333C1071.76 812.32 1069.55 812.333 1067.35 812.333Z"
      fill="black"></path>
    <path
      d="M411.693 779.653C413.947 778 416.2 776.373 418.48 774.76C422.84 779.053 426.76 783.773 430.187 788.853C427.867 790.8 425.547 792.733 423.187 794.613C419.733 789.347 415.893 784.36 411.693 779.653Z"
      fill="black"></path>
    <path
      d="M430.693 775.813C448.013 776 465.333 776.027 482.653 775.8C482.613 781.013 482.64 786.24 482.653 791.467C480.387 791.48 478.133 791.507 475.88 791.547C475.813 792.333 475.693 793.893 475.627 794.68C470.48 794.56 465.333 794.467 460.2 794.467C460.187 795.293 460.16 796.973 460.16 797.813C465.92 797.813 471.667 797.72 477.427 797.653C477.307 805.76 477.32 813.88 477.427 822C471.667 821.947 465.92 821.853 460.173 821.84C460.187 822.653 460.187 824.267 460.187 825.08C467.56 825.147 474.92 825.027 482.293 824.947C482.293 827.24 482.293 829.56 482.293 831.867C474.947 831.813 467.6 831.68 460.253 831.733C460.253 833.947 460.28 836.2 460.293 838.44C457.64 838.413 455 838.4 452.36 838.387C452.373 836.147 452.4 833.933 452.44 831.72C445.453 831.693 438.467 831.8 431.48 831.893C431.48 829.573 431.48 827.253 431.493 824.947C438.493 825.013 445.493 825.133 452.507 825.107C452.493 824.293 452.493 822.653 452.493 821.827C446.88 821.853 441.28 821.947 435.68 822C435.68 813.88 435.707 805.773 435.653 797.667C441.253 797.707 446.867 797.8 452.467 797.813C452.48 796.973 452.507 795.293 452.52 794.453C447.68 794.4 442.84 794.827 438.013 794.493C437.707 793.747 437.08 792.253 436.76 791.52C434.733 791.48 432.707 791.467 430.68 791.467C430.76 786.24 430.813 781.027 430.693 775.813ZM438.667 782.893C438.667 784.667 438.667 786.44 438.68 788.227C443.213 788.307 447.76 788.373 452.32 788.4C452.227 787.307 452.027 785.133 451.933 784.053C454.973 784.227 458.013 784.413 461.053 784.64C460.92 785.587 460.653 787.48 460.533 788.427C465.173 788.373 469.827 788.307 474.48 788.227C474.467 786.44 474.467 784.667 474.48 782.92C462.547 782.88 450.6 782.907 438.667 782.893ZM443.213 803.36C443.213 804.293 443.213 806.173 443.213 807.12C446.293 807.107 449.387 807.107 452.467 807.12C452.48 805.853 452.493 804.587 452.507 803.347C449.4 803.333 446.307 803.347 443.213 803.36ZM460.16 803.36C460.173 804.293 460.173 806.187 460.187 807.133C463.347 807.12 466.507 807.107 469.68 807.107C469.68 805.84 469.667 804.587 469.667 803.333C466.493 803.333 463.333 803.333 460.16 803.36ZM443.24 812.413C443.227 813.667 443.227 814.947 443.227 816.227C446.32 816.213 449.413 816.227 452.507 816.227C452.493 814.947 452.493 813.68 452.493 812.413C449.4 812.413 446.32 812.4 443.24 812.413ZM460.187 812.413C460.187 813.667 460.187 814.933 460.187 816.213C463.347 816.213 466.507 816.227 469.667 816.227C469.667 814.947 469.68 813.68 469.68 812.413C466.52 812.413 463.347 812.4 460.187 812.413Z"
      fill="black"></path>
    <path
      d="M743.947 775.133C746.88 775.507 749.8 775.88 752.747 776.28C751.773 781.213 750.787 786.133 749.72 791.053C754.307 791.227 759.693 790.16 763.467 793.453C767.173 796.987 767.307 802.56 767.48 807.347C767.453 816.067 767.32 824.84 765.827 833.453C765.04 837.253 763.8 841.587 760.173 843.627C755.307 846.24 749.573 845.107 744.32 844.747C743.76 841.88 743.187 839.013 742.627 836.16C746.133 836.507 749.72 837.48 753.267 836.8C756.28 836.213 756.76 832.693 757.4 830.253C758.773 822.693 758.96 814.947 758.907 807.293C758.613 804.4 758.987 800.6 756.147 798.853C753.427 798.48 750.693 798.64 747.973 798.667C744.067 814.667 739.093 830.44 732.32 845.467C729.533 844.36 726.747 843.28 723.973 842.187C730.253 828.427 735.307 814.107 738.987 799.44C734.253 799.907 729.547 800.4 724.827 800.907C724.707 798.173 724.6 795.467 724.493 792.747C729.933 792.427 735.387 792.107 740.827 791.787C741.987 786.253 743.013 780.693 743.947 775.133Z"
      fill="black"></path>
    <path
      d="M867.427 775.253C870.227 775.253 873.027 775.253 875.84 775.267C875.853 781.307 875.773 787.36 875.72 793.413C879.973 793.253 884.24 793.12 888.507 792.987C888.48 795.627 888.48 798.293 888.493 800.96C884.173 801.027 879.867 801.12 875.56 801.2C875.253 807.147 875.28 813.133 874.36 819.027C873.92 821.987 872.227 825.107 869.147 825.96C864.107 827.213 858.933 825.707 854.067 824.44C854.04 821.613 854.027 818.773 854.027 815.96C857.613 816.907 861.347 818.747 865.133 817.76C867.813 812.867 866.707 806.84 867.36 801.48C860.88 801.76 854.413 802.08 847.947 802.44C848.013 812.48 847.173 822.6 848.427 832.587C848.72 835.52 852.147 836.2 854.533 836.6C863.493 837.627 872.547 836.72 881.507 836.067C881.507 838.947 881.52 841.84 881.533 844.733C870.8 845.053 859.933 846.16 849.267 844.387C844.653 843.8 840.36 840.36 840 835.52C838.64 824.747 839.507 813.867 839.413 803.053C835.253 803.387 831.107 803.747 826.96 804.107C826.947 801.44 826.947 798.787 826.947 796.147C831.12 795.853 835.307 795.547 839.507 795.253C839.613 789.533 839.747 783.813 839.867 778.093C842.747 778.08 845.64 778.08 848.533 778.093C848.387 783.627 848.24 789.16 848.107 794.707C854.573 794.4 861.04 794.067 867.507 793.747C867.493 787.587 867.48 781.413 867.427 775.253Z"
      fill="black"></path>
    <path
      d="M930.36 779.653C932.6 778 934.867 776.373 937.147 774.76C941.493 779.053 945.427 783.773 948.84 788.867C946.533 790.813 944.2 792.733 941.853 794.613C938.387 789.347 934.547 784.36 930.36 779.653Z"
      fill="black"></path>
    <path
      d="M949.36 775.813C966.68 775.987 983.987 776.027 1001.31 775.8C1001.28 781.013 1001.31 786.24 1001.32 791.467C999.04 791.48 996.773 791.507 994.52 791.547C994.48 792.32 994.387 793.893 994.333 794.667C989.173 794.56 984.013 794.467 978.867 794.453C978.853 795.293 978.827 796.973 978.813 797.813C984.573 797.813 990.333 797.72 996.093 797.653C995.973 805.76 995.973 813.88 996.093 822C990.333 821.947 984.587 821.853 978.853 821.84C978.853 822.653 978.853 824.267 978.853 825.08C986.213 825.147 993.587 825.027 1000.96 824.947C1000.95 827.24 1000.95 829.56 1000.96 831.867C993.613 831.813 986.267 831.68 978.92 831.733C978.907 833.947 978.933 836.2 978.96 838.427C976.307 838.413 973.667 838.413 971.04 838.4C971.04 836.16 971.067 833.933 971.093 831.72C964.107 831.693 957.133 831.8 950.147 831.893C950.147 829.56 950.147 827.253 950.16 824.947C957.16 825.013 964.16 825.133 971.173 825.107C971.16 824.293 971.16 822.653 971.16 821.827C965.547 821.853 959.947 821.947 954.347 822C954.347 813.88 954.373 805.773 954.32 797.667C959.92 797.707 965.52 797.8 971.12 797.827C971.133 796.693 971.16 795.573 971.187 794.453C966.347 794.4 961.507 794.827 956.68 794.493C956.373 793.747 955.747 792.267 955.44 791.52C953.4 791.493 951.36 791.467 949.347 791.467C949.427 786.24 949.48 781.027 949.36 775.813ZM957.333 782.893C957.333 784.667 957.333 786.44 957.347 788.227C961.88 788.307 966.427 788.373 970.987 788.4C970.893 787.307 970.693 785.133 970.6 784.053C973.64 784.227 976.667 784.413 979.72 784.64C979.587 785.587 979.32 787.48 979.187 788.427C983.84 788.373 988.493 788.307 993.147 788.227C993.133 786.44 993.133 784.667 993.147 782.92C981.2 782.88 969.267 782.907 957.333 782.893ZM961.88 803.347C961.88 804.293 961.893 806.173 961.893 807.12C964.96 807.12 968.04 807.107 971.147 807.12C971.147 805.853 971.16 804.6 971.187 803.36C968.08 803.347 964.973 803.347 961.88 803.347ZM978.827 803.36C978.84 804.293 978.84 806.187 978.84 807.12C982 807.12 985.147 807.12 988.32 807.12C988.32 805.853 988.333 804.587 988.373 803.347C985.173 803.333 982 803.347 978.827 803.36ZM961.907 812.413C961.88 813.667 961.88 814.947 961.893 816.227C964.973 816.213 968.067 816.227 971.173 816.227C971.16 814.947 971.147 813.68 971.147 812.413C968.067 812.4 964.973 812.4 961.907 812.413ZM978.84 812.413C978.84 813.36 978.853 815.267 978.853 816.227C982 816.213 985.173 816.227 988.333 816.227C988.333 814.947 988.333 813.68 988.347 812.413C985.173 812.4 982 812.413 978.84 812.413Z"
      fill="black"></path>
    <path
      d="M765.933 786.373C768.547 785.293 771.16 784.24 773.787 783.187C779.533 792.987 783.733 803.6 786.76 814.533C783.84 815.707 780.933 816.907 778.04 818.093C775.627 806.973 771.747 796.173 765.933 786.373Z"
      fill="black"></path>
    <path
      d="M410.507 803.987C416.72 804.133 422.933 804.133 429.147 803.987C429.053 812.227 428.907 820.467 429 828.72C428.587 835.16 435.68 838.76 441.267 839.133C456.187 840.427 471.213 839.187 486.133 838.16C485.107 840.96 484.147 843.813 483.213 846.653C468.453 847.267 453.573 848.467 438.867 846.6C433.16 846.04 428.467 842.52 424.92 838.253C421.267 841.547 417.56 844.773 413.72 847.827C412.253 844.787 410.867 841.72 409.52 838.653C413.547 836.427 417.347 833.813 420.773 830.733C420.707 824.6 420.733 818.467 420.72 812.347C417.307 812.4 413.907 812.493 410.493 812.573C410.48 809.693 410.493 806.84 410.507 803.987Z"
      fill="black"></path>
    <path
      d="M929.173 812.573C929.147 809.707 929.147 806.84 929.16 803.987C935.373 804.133 941.6 804.12 947.827 804C947.707 812.267 947.573 820.547 947.667 828.813C947.333 835.213 954.36 838.747 959.893 839.133C974.84 840.427 989.88 839.2 1004.8 838.16C1003.77 840.96 1002.81 843.813 1001.88 846.653C987.133 847.267 972.267 848.453 957.573 846.6C951.867 846.053 947.147 842.533 943.56 838.267C939.92 841.573 936.213 844.8 932.347 847.8C930.893 844.773 929.533 841.707 928.2 838.653C932.2 836.427 935.987 833.813 939.413 830.773C939.373 824.627 939.4 818.48 939.4 812.347C935.987 812.4 932.573 812.493 929.173 812.573Z"
      fill="black"></path>
  </g>
  <defs>
    <clipPath id="clip0_1_33">
      <rect width="1542" height="963" fill="white"></rect>
    </clipPath>
  </defs>
</svg>